# xmcd
#
# Track frame offsets:
#	150
#	14622
#	30114
#	44727
#	60205
#	74364
#	88030
#	105283
#	122562
#	136810
#	148809
#	164066
#	181415
#	194915
#	209516
#	226294
#	239322
#	257205
#	272343
#	285806
#
# Disc length: 4014 seconds
#
# Revision: 1
# Processed by: cddbd v1.5.2PL0 Copyright (c) Steve Scherf et al.
# Submitted via: audiograbber 1.83.01
#
DISCID=1f0fac14
DTITLE=NFS Country Singles For Radio - 117 - NFS Country Singles For Radio - 11
DTITLE=7
DYEAR=1900
DGENRE=
TTITLE0=Lee Forster - 1,000 Headlights
TTITLE1=Gina Jeffreys - The Truth About Lies
TTITLE2=Tom Maxwell - Born And Breed In The Northern Territory
TTITLE3=Simply Bushed - Dad's Cruiser
TTITLE4=Cat Southern - Little Miss Understood
TTITLE5=Danny Mack - Ride Me Down Easy
TTITLE6=Leaping Lizards Bush Band - From Clare To Here
TTITLE7=David Delle-Vergin - It's Just Turned Drinking Time
TTITLE8=Melissa Barjac - Luckiest Girl
TTITLE9=Mark Lucas and The Dead Setters - Tearin' This Old House Down
TTITLE10=Brian Letton - Driving Through A Postcard
TTITLE11=Amber Lawrence - Gonna Fly
TTITLE12=Jonah's Road - All Mine
TTITLE13=Danny Hooper - Already Gone
TTITLE14=Jeff Brown - Old Ringer Sam
TTITLE15=Dave Prior - Big Fat Bastards Like Me
TTITLE16=Michael Muchow - Your Fool
TTITLE17=Brad Cole - Lovin' Man
TTITLE18=Adam James - Many Who Pretend
TTITLE19=Beggers - Preacher I Have Sinned
EXTD=
EXTT0=
EXTT1=
EXTT2=
EXTT3=
EXTT4=
EXTT5=
EXTT6=
EXTT7=
EXTT8=
EXTT9=
EXTT10=
EXTT11=
EXTT12=
EXTT13=
EXTT14=
EXTT15=
EXTT16=
EXTT17=
EXTT18=
EXTT19=
PLAYORDER=
